HIERARCHY
ROOT Hips
{
 OFFSET 0.000000 0.000000 0.000000
 CHANNELS 6 Xposition Yposition Zposition Yrotation Xrotation Zrotation
 JOINT Chest
 {
  OFFSET 0.000000 9.588913 -0.003946
  CHANNELS 3 Yrotation Xrotation Zrotation
  JOINT Chest2
  {
   OFFSET 0.000000 9.541882 0.008053
   CHANNELS 3 Yrotation Xrotation Zrotation
   JOINT Chest3
   {
    OFFSET 0.000000 9.501360 0.000000
    CHANNELS 3 Yrotation Xrotation Zrotation
    JOINT Chest4
    {
     OFFSET 0.000000 9.491660 0.000000
     CHANNELS 3 Yrotation Xrotation Zrotation
     JOINT Neck
     {
      OFFSET 0.000000 14.331917 0.000000
      CHANNELS 3 Yrotation Xrotation Zrotation
      JOINT Head
      {
       OFFSET 0.000000 8.884799 0.017034
       CHANNELS 3 Yrotation Xrotation Zrotation
       End Site
       {
        OFFSET 0.000000 16.896195 0.008993
       }
      }
     }
     JOINT RightCollar
     {
      OFFSET -2.923010 9.499495 0.000000
      CHANNELS 3 Yrotation Xrotation Zrotation
      JOINT RightShoulder
      {
       OFFSET -13.795216 0.000000 0.000000
       CHANNELS 3 Yrotation Xrotation Zrotation
       JOINT RightElbow
       {
        OFFSET -30.272209 0.000000 0.000000
        CHANNELS 3 Yrotation Xrotation Zrotation
        JOINT RightWrist
        {
         OFFSET -24.478199 0.000000 0.000000
         CHANNELS 3 Yrotation Xrotation Zrotation
         End Site
         {
          OFFSET -18.090752 0.000000 0.000000
         }
        }
       }
      }
     }
     JOINT LeftCollar
     {
      OFFSET 2.923010 9.499495 0.000000
      CHANNELS 3 Yrotation Xrotation Zrotation
      JOINT LeftShoulder
      {
       OFFSET 13.795216 0.000000 0.000000
       CHANNELS 3 Yrotation Xrotation Zrotation
       JOINT LeftElbow
       {
        OFFSET 30.272209 0.000000 0.000000
        CHANNELS 3 Yrotation Xrotation Zrotation
        JOINT LeftWrist
        {
         OFFSET 24.478199 0.000000 0.000000
         CHANNELS 3 Yrotation Xrotation Zrotation
         End Site
         {
          OFFSET 18.090752 0.000000 0.000000
         }
        }
       }
      }
     }
    }
   }
  }
 }
 JOINT RightHip
 {
  OFFSET -7.826875 0.019532 0.001973
  CHANNELS 3 Yrotation Xrotation Zrotation
  JOINT RightKnee
  {
   OFFSET 0.000000 -40.546152 -0.001885
   CHANNELS 3 Yrotation Xrotation Zrotation
   JOINT RightAnkle
   {
    OFFSET 0.000000 -39.417092 -0.003189
    CHANNELS 3 Yrotation Xrotation Zrotation
    JOINT RightToe
    {
     OFFSET 0.000000 -7.579396 17.243563
     CHANNELS 3 Yrotation Xrotation Zrotation
     End Site
     {
      OFFSET 0.000000 -1.500329 6.694466
     }
    }
   }
  }
 }
 JOINT LeftHip
 {
  OFFSET 7.826875 0.019532 0.001973
  CHANNELS 3 Yrotation Xrotation Zrotation
  JOINT LeftKnee
  {
   OFFSET 0.000000 -40.546152 -0.001885
   CHANNELS 3 Yrotation Xrotation Zrotation
   JOINT LeftAnkle
   {
    OFFSET 0.000000 -39.417092 -0.003189
    CHANNELS 3 Yrotation Xrotation Zrotation
    JOINT LeftToe
    {
     OFFSET 0.000000 -7.579396 17.243563
     CHANNELS 3 Yrotation Xrotation Zrotation
     End Site
     {
      OFFSET 0.000000 -1.500329 6.694466
     }
    }
   }
  }
 }
}
MOTION
Frames: 16
Frame Time: 0.008333
8.505062 86.250140 9.659045 135.086730 -12.514316 -1.234697 3.169581 2.810667 1.666763 1.788318 1.591065 0.727388 2.238758 1.985213 0.917058 1.788318 1.591065 0.727388 0.837070 6.791672 -2.067464 2.749089 -23.114151 -4.565201 -5.203617 -3.946036 0.562125 -13.526294 -23.650839 86.555850 71.272006 -58.888331 35.925553 16.508587 2.060915 -5.767812 3.362656 -1.856793 0.629528 4.559158 -11.447227 -95.062649 -49.925821 -44.015337 -70.955736 13.004357 -1.818682 1.255795 -22.130734 13.382556 -14.391165 -2.682151 9.932731 -2.336484 -13.721912 -10.035235 12.189008 -0.160306 0.521003 -0.080900 -7.274614 3.525671 12.079541 0.920985 25.239942 3.642598 -8.788096 -15.624506 -10.737414 -0.060156 -0.458716 -0.027741
8.504506 86.250024 9.670160 135.109745 -12.491161 -1.242598 3.176626 2.810133 1.662767 1.793226 1.592694 0.724711 2.244886 1.987252 0.913741 1.793226 1.592694 0.724711 0.813572 6.829645 -2.070329 2.701375 -23.044723 -4.556479 -5.215775 -3.942488 0.553573 -13.512551 -23.665360 86.511254 71.329211 -58.849639 35.817294 16.516105 2.039611 -5.814582 3.355785 -1.850039 0.650578 4.619779 -11.417841 -94.950458 -49.980928 -44.013753 -70.985381 13.018841 -1.811132 1.298636 -22.153194 13.365309 -14.380345 -2.677870 9.924942 -2.332293 -13.700258 -10.042812 12.181823 -0.152754 0.524496 -0.078638 -7.301313 3.504596 12.088992 0.927776 25.223410 3.644302 -8.784137 -15.616465 -10.744375 -0.059113 -0.456231 -0.028918
8.504415 86.249827 9.682060 135.130649 -12.461177 -1.250291 3.184058 2.806191 1.655515 1.798489 1.592770 0.721054 2.251450 1.987355 0.909193 1.798489 1.592770 0.721054 0.790939 6.879318 -2.071052 2.653608 -22.953632 -4.543298 -5.225485 -3.938517 0.551320 -13.499077 -23.681119 86.471589 71.333205 -58.838064 35.753152 16.527571 2.008043 -5.850282 3.345193 -1.847490 0.672709 4.696697 -11.393997 -94.838382 -50.062904 -43.991157 -70.998550 13.029763 -1.790373 1.358489 -22.174048 13.340953 -14.364875 -2.673772 9.917773 -2.328527 -13.682910 -10.050958 12.172705 -0.143820 0.528690 -0.075162 -7.340205 3.477731 12.100755 0.938631 25.210317 3.642225 -8.781387 -15.608021 -10.748374 -0.062791 -0.456758 -0.031850
8.506005 86.249959 9.693969 135.148382 -12.431635 -1.257310 3.190967 2.803203 1.646279 1.804643 1.591858 0.717147 2.259124 1.986221 0.904330 1.804643 1.591858 0.717147 0.769925 6.942364 -2.071332 2.608094 -22.837655 -4.529361 -5.235442 -3.930995 0.550997 -13.479202 -23.700497 86.435624 71.305793 -58.850194 35.714357 16.540944 1.967471 -5.879018 3.334087 -1.848702 0.696288 4.778212 -11.373642 -94.732295 -50.146548 -43.952113 -71.007897 13.018304 -1.760719 1.433317 -22.190032 13.315915 -14.342028 -2.675787 9.911666 -2.327151 -13.691325 -10.055897 12.166784 -0.143556 0.535768 -0.075842 -7.384448 3.453199 12.114521 0.951149 25.198444 3.637393 -8.782199 -15.598156 -10.752969 -0.066907 -0.460812 -0.033769
8.509947 86.250610 9.705676 135.160237 -12.404990 -1.263213 3.198526 2.802433 1.638832 1.811418 1.590619 0.713329 2.267575 1.984677 0.899580 1.811418 1.590619 0.713329 0.750899 7.020463 -2.073178 2.566520 -22.693570 -4.518788 -5.246338 -3.921320 0.546611 -13.452995 -23.723435 86.403316 71.267660 -58.881299 35.684891 16.544666 1.921650 -5.904544 3.329818 -1.855503 0.718037 4.853559 -11.353724 -94.633790 -50.207133 -43.901676 -71.027043 12.966993 -1.734415 1.519656 -22.203388 13.291733 -14.317209 -2.686833 9.907517 -2.328734 -13.701506 -10.058978 12.162742 -0.148851 0.542859 -0.078719 -7.422791 3.433608 12.129856 0.961902 25.185849 3.630455 -8.781967 -15.586253 -10.760404 -0.067270 -0.466612 -0.033260
8.515760 86.251634 9.717657 135.162791 -12.375858 -1.266058 3.209675 2.799065 1.633955 1.818364 1.589102 0.709180 2.276237 1.982788 0.894417 1.818364 1.589102 0.709180 0.732742 7.116785 -2.075854 2.526111 -22.515579 -4.509373 -5.258188 -3.912836 0.539967 -13.425463 -23.745796 86.376556 71.229230 -58.918957 35.660212 16.529008 1.881501 -5.929251 3.333257 -1.866626 0.735405 4.917964 -11.333849 -94.539965 -50.217696 -43.861863 -71.074571 12.839358 -1.729918 1.602374 -22.210832 13.264184 -14.297918 -2.704337 9.906077 -2.333464 -13.671127 -10.064644 12.158050 -0.147090 0.544027 -0.078342 -7.447143 3.411978 12.147073 0.968797 25.172942 3.620181 -8.781245 -15.571887 -10.767433 -0.067067 -0.473901 -0.032282
8.523520 86.252972 9.730173 135.163266 -12.342136 -1.268454 3.220813 2.791948 1.629744 1.824298 1.586957 0.704952 2.283632 1.980116 0.889146 1.824298 1.586957 0.704952 0.716869 7.235508 -2.076398 2.487944 -22.295996 -4.495748 -5.256496 -3.908597 0.535744 -13.414449 -23.761471 86.356752 71.198050 -58.947723 35.640120 16.498865 1.851744 -5.953721 3.339515 -1.878265 0.750532 4.970929 -11.315026 -94.448227 -50.170179 -43.841215 -71.156695 12.632967 -1.747066 1.679313 -22.217530 13.231573 -14.279555 -2.725138 9.908613 -2.340577 -13.617424 -10.071549 12.153072 -0.140082 0.540021 -0.075576 -7.463646 3.385586 12.166400 0.977653 25.159651 3.610279 -8.780921 -15.555146 -10.775003 -0.066121 -0.481165 -0.031126
8.533505 86.254642 9.743017 135.164365 -12.304912 -1.271714 3.229810 2.783503 1.624095 1.829468 1.584068 0.700922 2.290071 1.976515 0.884115 1.829468 1.584068 0.700922 0.703961 7.380014 -2.072728 2.452166 -22.028602 -4.473988 -5.236924 -3.911678 0.535539 -13.425038 -23.764802 86.342722 71.184670 -58.960803 35.620330 16.470786 1.830643 -5.977359 3.346254 -1.889970 0.766196 5.012101 -11.296951 -94.357641 -50.072321 -43.830701 -71.269153 12.363359 -1.786179 1.750710 -22.224700 13.194649 -14.254020 -2.745166 9.914367 -2.349697 -13.582197 -10.076394 12.147440 -0.134831 0.536413 -0.072361 -7.477468 3.358133 12.186468 0.990265 25.142422 3.604190 -8.779938 -15.536523 -10.784567 -0.065169 -0.486907 -0.030483
8.545476 86.256639 9.755418 135.163770 -12.265710 -1.272215 3.239297 2.774276 1.615525 1.834634 1.581210 0.696479 2.296504 1.972955 0.878569 1.834634 1.581210 0.696479 0.690010 7.552815 -2.064589 2.410638 -21.708931 -4.441504 -5.217106 -3.923416 0.538072 -13.438624 -23.754007 86.334435 71.197258 -58.958513 35.591755 16.459125 1.818981 -6.000119 3.350626 -1.903461 0.782227 5.045978 -11.275801 -94.266356 -49.938341 -43.823735 -71.407497 12.056390 -1.848853 1.812466 -22.225853 13.158059 -14.223431 -2.758994 9.917474 -2.360561 -13.576391 -10.077978 12.140610 -0.129812 0.535064 -0.067742 -7.491812 3.334133 12.204730 0.998025 25.117649 3.596600 -8.776628 -15.516050 -10.793271 -0.068798 -0.492202 -0.031928
8.559652 86.258994 9.766894 135.160855 -12.226825 -1.270322 3.249637 2.763709 1.604958 1.839853 1.578679 0.691762 2.303003 1.969805 0.872681 1.839853 1.578679 0.691762 0.673417 7.756005 -2.053459 2.360956 -21.333095 -4.400445 -5.202845 -3.941490 0.541141 -13.442505 -23.727761 86.331412 71.244948 -58.941023 35.542014 16.466297 1.815019 -6.025814 3.350636 -1.919546 0.796039 5.074888 -11.246692 -94.170856 -49.803010 -43.815251 -71.542930 11.742987 -1.940820 1.858485 -22.219154 13.128184 -14.192135 -2.767595 9.912869 -2.371519 -13.584867 -10.075951 12.132734 -0.122699 0.533670 -0.061809 -7.506665 3.316768 12.220663 1.000130 25.085383 3.585649 -8.764195 -15.494298 -10.801682 -0.075316 -0.496335 -0.034617
8.576350 86.261793 9.776704 135.157085 -12.192158 -1.266418 3.258015 2.752550 1.590627 1.845014 1.575379 0.686472 2.309425 1.965697 0.866074 1.845015 1.575379 0.686472 0.657322 7.990454 -2.040087 2.309801 -20.899293 -4.353969 -5.188874 -3.959419 0.545025 -13.439647 -23.686569 86.334426 71.322790 -58.910516 35.470535 16.484524 1.812976 -6.056393 3.348775 -1.936752 0.810634 5.090880 -11.205014 -94.072462 -49.705988 -43.804209 -71.633874 11.443699 -2.056573 1.893012 -22.211313 13.107692 -14.162156 -2.774221 9.899795 -2.382133 -13.609388 -10.069091 12.126511 -0.120191 0.533220 -0.058276 -7.518675 3.309341 12.233411 1.002776 25.045175 3.575587 -8.749003 -15.471489 -10.811052 -0.081758 -0.499019 -0.037282
8.595658 86.265055 9.784356 135.153785 -12.163708 -1.260967 3.263976 2.740954 1.572790 1.849739 1.570500 0.679772 2.315293 1.959624 0.857694 1.849739 1.570501 0.679772 0.644132 8.253535 -2.025452 2.262659 -20.412243 -4.305449 -5.174774 -3.974445 0.549182 -13.434218 -23.634295 86.347767 71.413070 -58.871732 35.384648 16.505065 1.809413 -6.088549 3.346323 -1.956232 0.829135 5.096459 -11.143675 -93.972639 -49.663081 -43.787221 -71.670197 11.180427 -2.162173 1.936005 -22.207262 13.095553 -14.136510 -2.782682 9.882382 -2.390252 -13.643685 -10.058964 12.122127 -0.124333 0.533213 -0.058375 -7.525594 3.314504 12.244447 1.011724 24.994095 3.569099 -8.743137 -15.448199 -10.823351 -0.084806 -0.499570 -0.037579
8.617634 86.268692 9.790140 135.150710 -12.140317 -1.257080 3.269666 2.726243 1.555212 1.853536 1.563322 0.671832 2.319990 1.950683 0.847746 1.853536 1.563322 0.671832 0.633497 8.540604 -2.011749 2.220217 -19.880493 -4.259319 -5.154576 -3.985725 0.554888 -13.434394 -23.574035 86.371695 71.502245 -58.826728 35.291720 16.524920 1.804408 -6.117833 3.342215 -1.977488 0.850572 5.105604 -11.058005 -93.873891 -49.677505 -43.758513 -71.656096 10.965871 -2.233234 1.996215 -22.209497 13.091796 -14.120204 -2.794942 9.861791 -2.391237 -13.653812 -10.048973 12.115382 -0.125449 0.528982 -0.058882 -7.527211 3.330656 12.257912 1.029288 24.933996 3.565800 -8.749000 -15.426111 -10.837499 -0.084925 -0.497542 -0.036022
8.641832 86.272524 9.794431 135.150280 -12.118680 -1.256289 3.274723 2.705016 1.537299 1.856106 1.552642 0.662981 2.323143 1.937375 0.836638 1.856106 1.552642 0.662981 0.624526 8.844387 -1.998968 2.181110 -19.317584 -4.215498 -5.130635 -3.992015 0.566849 -13.440759 -23.507914 86.403905 71.576571 -58.776254 35.205359 16.543677 1.800510 -6.143741 3.336734 -1.995349 0.880062 5.119778 -10.951087 -93.785477 -49.757541 -43.725456 -71.581609 10.819731 -2.258493 2.075466 -22.223430 13.096113 -14.112817 -2.806247 9.832755 -2.386896 -13.629104 -10.038072 12.105763 -0.119190 0.519522 -0.057889 -7.530322 3.351456 12.274796 1.049264 24.871847 3.562527 -8.760641 -15.406090 -10.849218 -0.087322 -0.495199 -0.036057
8.666344 86.276332 9.796069 135.170197 -12.096019 -1.250159 3.259577 2.678457 1.506251 1.857874 1.537682 0.653986 2.325286 1.918717 0.825324 1.857875 1.537682 0.653986 0.617621 9.151305 -1.986814 2.146651 -18.748722 -4.174224 -5.117497 -3.995556 0.583098 -13.438384 -23.438976 86.444008 71.626377 -58.722437 35.131217 16.560723 1.799082 -6.167815 3.332765 -2.008929 0.919341 5.134457 -10.829418 -93.713077 -49.903132 -43.687674 -71.439360 10.741303 -2.239166 2.171707 -22.263450 13.101658 -14.117173 -2.814061 9.793560 -2.381270 -13.606606 -10.001384 12.091486 -0.100439 0.490132 -0.051218 -7.559045 3.371244 12.281832 1.070507 24.812689 3.557591 -8.776576 -15.408675 -10.859988 -0.085015 -0.474967 -0.034465
8.693417 86.280017 9.797949 135.176762 -12.071706 -1.253585 3.257880 2.644385 1.485541 1.858332 1.518399 0.645745 2.325785 1.894656 0.814924 1.858333 1.518399 0.645745 0.614580 9.442511 -1.976860 2.121933 -18.208751 -4.140196 -5.114608 -3.995096 0.599021 -13.419895 -23.371260 86.490370 71.655941 -58.666913 35.059111 16.579519 1.797898 -6.189801 3.334089 -2.018133 0.964244 5.148319 -10.699017 -93.657854 -50.104469 -43.634381 -71.229666 10.702462 -2.193203 2.274160 -22.285338 13.115852 -14.106003 -2.820629 9.747534 -2.374366 -13.592841 -9.983331 12.082182 -0.099259 0.482509 -0.052023 -7.581683 3.391526 12.298236 1.096661 24.757225 3.554472 -8.777560 -15.392570 -10.870711 -0.091323 -0.473940 -0.036331
